<?xml version="1.0" encoding="UTF-8" standalone="no"?>
<!-- Created with Inkscape (http://www.inkscape.org/) -->

<svg
   width="165mm"
   height="82mm"
   viewBox="0 0 165 82"
   version="1.1"
   id="svg714"
   inkscape:version="1.2.2 (732a01da63, 2022-12-09)"
   sodipodi:docname="groupTripper.svg"
   xmlns:inkscape="http://www.inkscape.org/namespaces/inkscape"
   xmlns:sodipodi="http://sodipodi.sourceforge.net/DTD/sodipodi-0.dtd"
   xmlns="http://www.w3.org/2000/svg"
   xmlns:svg="http://www.w3.org/2000/svg">
  <sodipodi:namedview
     id="namedview716"
     pagecolor="#505050"
     bordercolor="#ffffff"
     borderopacity="1"
     inkscape:showpageshadow="0"
     inkscape:pageopacity="0"
     inkscape:pagecheckerboard="1"
     inkscape:deskcolor="#505050"
     inkscape:document-units="mm"
     showgrid="false"
     inkscape:zoom="0.914906"
     inkscape:cx="127.33549"
     inkscape:cy="562.89936"
     inkscape:window-width="1918"
     inkscape:window-height="2054"
     inkscape:window-x="1652"
     inkscape:window-y="138"
     inkscape:window-maximized="0"
     inkscape:current-layer="layer1" />
  <defs
     id="defs711">
    <rect
       x="85.254662"
       y="261.22903"
       width="813.1983"
       height="263.41504"
       id="rect772" />
  </defs>
  <g
     inkscape:label="Layer 1"
     inkscape:groupmode="layer"
     id="layer1">
    <path
       id="path115"
       style="fill:#ff5555;stroke-width:0.261885"
       d="m 82.008024,1.4460066 c -15.732017,0 -28.48529,12.1463234 -28.48529,26.7850814 0,14.638771 28.77863,52.453401 28.77863,52.453401 0,0 28.191976,-37.81463 28.191976,-52.453401 0,-14.638767 -12.753264,-26.7850904 -28.485316,-26.7850814 z M 73.580463,17.906238 c 2.702622,-0.03908 5.713022,1.250009 8.115341,3.742251 l 0.31065,0.32308 0.3285,-0.339529 c 4.052872,-4.190358 9.821752,-4.960789 12.934702,-1.728042 3.11291,3.232736 2.35657,9.208426 -1.69654,13.398531 l -0.32272,0.33354 c -11.234232,11.14473 -11.262832,11.64456 -11.262832,11.64456 0,0 0.0591,-0.098 -11.243933,-11.66451 l -0.316955,-0.32905 c -4.046005,-4.197474 -4.790118,-10.172042 -1.668724,-13.396028 1.268082,-1.309731 2.97334,-1.958175 4.822511,-1.984803 z" />
    <text
       xml:space="preserve"
       transform="matrix(0.26458333,0,0,0.26458333,-22.26777,-28.340799)"
       id="text770"
       style="font-style:normal;font-variant:normal;font-weight:normal;font-stretch:normal;font-size:96px;font-family:'Century Gothic';-inkscape-font-specification:'Century Gothic';white-space:pre;shape-inside:url(#rect772);fill:#000000"><tspan
         x="85.253906"
         y="348.38448"
         id="tspan180"><tspan
           style="-inkscape-font-specification:'Century Gothic, Normal'"
           id="tspan178">GroupTripper</tspan></tspan></text>
  </g>
</svg>
